HIERARCHY
ROOT Hips
{
	OFFSET 48.966599 -19.765516 100.591003
	CHANNELS 6 Xposition Yposition Zposition Xrotation Yrotation Zrotation
	JOINT spine
	{
		OFFSET 0.000000 -0.507025 8.817039
		CHANNELS 3 Xrotation Yrotation Zrotation
		JOINT spine1
		{
			OFFSET 0.000000 -0.000002 10.776604
			CHANNELS 3 Xrotation Yrotation Zrotation
			JOINT spine2
			{
				OFFSET 0.000000 -0.000002 10.325897
				CHANNELS 3 Xrotation Yrotation Zrotation
				JOINT Neck
				{
					OFFSET 0.000000 -1.263954 26.511002
					CHANNELS 3 Xrotation Yrotation Zrotation
					JOINT Head
					{
						OFFSET 0.000000 -0.000002 8.009659
						CHANNELS 3 Xrotation Yrotation Zrotation
						End Site
						{
							OFFSET 0.000000 6.393856 19.387894
						}
					}
				}
				JOINT RightShoulder
				{
					OFFSET -4.347950 0.605419 11.151199
					CHANNELS 3 Xrotation Yrotation Zrotation
					JOINT RightArm
					{
						OFFSET 0.000000 -0.000002 14.625793
						CHANNELS 3 Xrotation Yrotation Zrotation
						JOINT RightArmRoll
						{
							OFFSET 0.000000 -0.000002 7.383392
							CHANNELS 3 Xrotation Yrotation Zrotation
							JOINT RightForeArm
							{
								OFFSET 0.000000 -0.000004 21.505203
								CHANNELS 3 Xrotation Yrotation Zrotation
								JOINT RightForeArmRoll
								{
									OFFSET 0.000000 -0.000002 8.285324
									CHANNELS 3 Xrotation Yrotation Zrotation
									JOINT RightHand
									{
										OFFSET 0.000000 -0.000002 16.626801
										CHANNELS 3 Xrotation Yrotation Zrotation
										End Site
										{
											OFFSET 0.000000 0.000000 0.100006
										}
									}
								}
							}
						}
					}
				}
				JOINT LeftShoulder
				{
					OFFSET 4.347950 0.605419 11.151199
					CHANNELS 3 Xrotation Yrotation Zrotation
					JOINT LeftArm
					{
						OFFSET 0.000000 -0.000002 14.625793
						CHANNELS 3 Xrotation Yrotation Zrotation
						JOINT LeftArmRoll
						{
							OFFSET 0.000000 -0.000002 7.383392
							CHANNELS 3 Xrotation Yrotation Zrotation
							JOINT LeftForeArm
							{
								OFFSET 0.000000 -0.000004 21.505203
								CHANNELS 3 Xrotation Yrotation Zrotation
								JOINT LeftForeArmRoll
								{
									OFFSET 0.000000 -0.000002 8.285324
									CHANNELS 3 Xrotation Yrotation Zrotation
									JOINT LeftHand
									{
										OFFSET 0.000000 -0.000002 16.626801
										CHANNELS 3 Xrotation Yrotation Zrotation
										End Site
										{
											OFFSET 0.000000 0.000000 0.100006
										}
									}
								}
							}
						}
					}
				}
			}
		}
	}
	JOINT RightUpLeg
	{
		OFFSET -7.815102 1.202171 -1.433090
		CHANNELS 3 Xrotation Yrotation Zrotation
		JOINT RightUpLegRoll
		{
			OFFSET 0.000000 -0.000004 19.495895
			CHANNELS 3 Xrotation Yrotation Zrotation
			JOINT RightLeg
			{
				OFFSET 0.000000 0.000004 -24.142700
				CHANNELS 3 Xrotation Yrotation Zrotation
				JOINT RightLegRoll
				{
					OFFSET 0.000000 -0.000004 24.221703
					CHANNELS 3 Xrotation Yrotation Zrotation
					JOINT RightFoot
					{
						OFFSET 0.000000 -0.000004 20.160500
						CHANNELS 3 Xrotation Yrotation Zrotation
						JOINT RightToeBase
						{
							OFFSET 0.000000 -0.000002 16.853195
							CHANNELS 3 Xrotation Yrotation Zrotation
							End Site
							{
								OFFSET 0.007145 0.940779 8.161865
							}
						}
					}
				}
			}
		}
	}
	JOINT LeftUpLeg
	{
		OFFSET 7.815102 1.202171 -1.433090
		CHANNELS 3 Xrotation Yrotation Zrotation
		JOINT LeftUpLegRoll
		{
			OFFSET 0.000000 -0.000004 19.496002
			CHANNELS 3 Xrotation Yrotation Zrotation
			JOINT LeftLeg
			{
				OFFSET 0.000000 -0.000004 24.142593
				CHANNELS 3 Xrotation Yrotation Zrotation
				JOINT LeftLegRoll
				{
					OFFSET 0.000000 -0.000004 24.445602
					CHANNELS 3 Xrotation Yrotation Zrotation
					JOINT LeftFoot
					{
						OFFSET 0.000000 -0.000004 19.936600
						CHANNELS 3 Xrotation Yrotation Zrotation
						JOINT LeftToeBase
						{
							OFFSET 0.000000 -0.000002 16.853195
							CHANNELS 3 Xrotation Yrotation Zrotation
							End Site
							{
								OFFSET -0.032013 0.940779 8.161865
							}
						}
					}
				}
			}
		}
	}
}
MOTION
Frames: 4
Frame Time: 0.041667
49.093998 -19.582914 100.784996 -4.110364 -0.188451 2.061078 -1.784681 -0.059729 -0.022783 0.428631 -0.118782 -0.064410 2.073695 -0.119529 -0.063234 25.873622 1.678423 2.500647 -7.652171 2.643530 2.529673 -1.970972 -67.035513 -3.248535 -48.324405 -113.891075 -34.943203 -0.000000 -0.000000 0.000001 0.115837 -15.501970 -0.419816 -0.000001 -0.000017 -3.035681 -5.000196 -7.998821 0.000147 -8.307566 61.838750 10.032487 -36.599101 113.059992 29.727189 0.000000 0.000036 -0.000002 2.363174 12.692745 0.078641 0.000002 -0.000004 3.000001 -5.000226 7.998691 -0.000156 3.674010 -177.352432 0.068252 -179.999991 0.000005 -1.175006 173.554806 -0.492868 -0.430687 -0.000006 0.000000 0.108153 69.750711 6.888744 2.087763 25.721220 -7.353850 0.405586 2.715943 176.256187 1.462780 -0.000005 -0.000004 -1.161270 -6.342321 2.194430 0.400028 -0.000008 0.000002 -0.091488 69.406388 -6.906897 -2.048770 25.456947 7.355613 0.000000 
49.094498 -19.589518 100.785995 -4.100793 -0.189113 2.058732 -1.786892 -0.059195 -0.021897 0.424547 -0.117747 -0.061361 2.069615 -0.118460 -0.060180 25.872000 1.662850 2.504393 -7.639787 2.665601 2.530768 -1.983001 -67.060976 -3.264627 -48.346517 -113.820991 -34.974848 -0.000002 -0.000000 -0.000000 0.092137 -15.512780 -0.395963 -0.000002 -0.000018 -3.033380 -5.000198 -7.998823 0.000148 -8.310507 61.837869 10.035796 -36.580212 113.026681 29.685310 -0.000000 0.000036 -0.000002 2.409447 12.677646 0.076418 -0.000002 -0.000004 3.000002 -5.000227 7.998691 -0.000155 3.657323 -177.351394 0.066981 -179.999991 0.000005 -1.175006 173.543373 -0.492857 -0.430785 -0.000005 -0.000000 0.108149 69.755909 6.888747 2.087641 25.720911 -7.353851 0.404308 2.704853 176.258168 1.465979 -0.000005 -0.000005 -1.161280 -6.344407 2.193428 0.399994 -0.000009 0.000002 -0.091474 69.407344 -6.906904 -2.048813 25.456943 7.355613 0.000000 
49.090595 -19.573112 100.786003 -4.091141 -0.189850 2.056251 -1.789133 -0.058629 -0.020987 0.420429 -0.116654 -0.058219 2.065494 -0.117330 -0.057033 25.869292 1.648174 2.508163 -7.625868 2.686156 2.531978 -1.995260 -67.086330 -3.280952 -48.369378 -113.752491 -35.004948 -0.000003 -0.000000 0.000001 0.056882 -15.522496 -0.372524 -0.000001 -0.000017 -3.031009 -5.000200 -7.998822 0.000148 -8.313699 61.836872 10.039382 -36.563396 112.993923 29.645330 -0.000000 0.000036 -0.000002 2.453683 12.662355 0.074468 -0.000000 -0.000004 3.000000 -5.000227 7.998692 -0.000156 3.640436 -177.351340 0.065585 -179.999991 0.000005 -1.175006 173.531775 -0.493837 -0.430997 -0.000006 0.000000 0.108137 69.761100 6.888756 2.087719 25.720713 -7.353847 0.402994 2.693895 176.260121 1.469278 -0.000005 -0.000005 -1.161290 -6.346146 2.192356 0.399942 -0.000008 0.000002 -0.091452 69.408191 -6.906908 -2.048761 25.456947 7.355613 -0.000000 
49.084896 -19.576521 100.785995 -4.081433 -0.190641 2.053687 -1.791390 -0.058041 -0.020060 0.416287 -0.115519 -0.055010 2.061354 -0.116158 -0.053818 25.865991 1.634126 2.511938 -7.610863 2.705668 2.533266 -2.007689 -67.111601 -3.297456 -48.394165 -113.684708 -35.035489 -0.000001 -0.000000 0.000001 0.013534 -15.531502 -0.349381 -0.000004 -0.000018 -3.028571 -5.000197 -7.998823 0.000148 -8.317074 61.835861 10.043174 -36.548018 112.961562 29.606657 -0.000000 0.000036 -0.000001 2.496487 12.646872 0.072714 -0.000001 -0.000004 3.000001 -5.000225 7.998691 -0.000156 3.623430 -177.350301 0.064210 -179.999991 0.000005 -1.175006 173.520095 -0.493825 -0.431098 -0.000006 0.000000 0.108120 69.766503 6.888735 2.087681 25.720413 -7.353845 0.401637 2.683025 176.262102 1.472661 -0.000005 -0.000004 -1.161300 -6.347631 2.191247 0.399879 -0.000009 0.000002 -0.091425 69.409038 -6.906910 -2.048807 25.456945 7.355614 -0.000000 
